<?xml version="1.0" encoding="UTF-8"?>
<svg width="501px" height="128px" viewBox="0 0 501 128" version="1.1" xmlns="http://www.w3.org/2000/svg" xmlns:xlink="http://www.w3.org/1999/xlink">
    <!-- Generator: Sketch 57.1 (83088) - https://sketch.com -->
    <title>multiversx-logo</title>
    <desc>Created with Sketch.</desc>
    <g id="Page-1" stroke="none" stroke-width="1" fill="none" fill-rule="evenodd">
        <g id="multiversx-logo" fill-rule="nonzero">
            <polygon id="Path" fill="#171717" points="41.9667 111.3808 61.1468 65.4946 75.43 65.4946 75.43 125.3215 65.9898 125.3215 65.9898 74.6718 44.8258 125.6411 38.0528 125.6411 17.07458 74.9914 17.07458 125.3456 8 125.3456 8 65.4705 22.9185 65.4705"></polygon>
            <path d="M126.744,116.3144 C125.124,119.5772 122.633,122.3212 119.548,124.2384 C116.464,126.1556 112.91,127.17 109.285,127.167903 C96.2721,127.167903 87.3773,117.2671 87.3773,103.652 L87.3773,73.4129 L97.0932,73.4129 L97.0932,101.837 C97.0932,111.7318 102.6974,118.2258 111.592,118.2258 C120.793,118.2258 126.72,111.5207 126.72,101.837 L126.72,73.4129 L136.352,73.4129 L136.352,125.9981 L126.744,125.9981 L126.744,116.3144 Z" id="Path" fill="#171717"></path>
            <path d="M207.351,126.5588 L194.968,126.5588 C182.8,126.5588 176.663,120.704 176.663,108.9943 L176.663,82.6986 L165.173,82.6986 L165.173,73.9736 L176.663,73.9736 L176.663,60.7083 L186.295,60.7083 L186.295,73.9736 L207.351,73.9736 L207.351,82.6986 L186.295,82.6986 L186.295,106.7572 C186.295,114.421 188.728,117.6107 197.084,117.6107 L207.345,117.6107 L207.351,126.5588 Z" id="Path" fill="#171717"></path>
            <polygon id="Path" fill="#171717" points="262.607 126.9568 254.911 126.9568 230.258 73.4129 241.047 73.4129 259.028 113.9688 276.914 73.4129 286.858 73.4129"></polygon>
            <path d="M340.65,100.5483 L297.153,100.5483 C297.686,110.3405 304.669,118.0345 314.937,118.0345 C325.408,118.0345 329.639,112.3906 330.49,110.6903 L340.003,110.6903 C339.157,115.2668 332.486,126.9705 314.925,126.9705 C298.741,126.9705 287.407,114.8327 287.407,99.3966 C287.407,83.5384 298.729,71.8286622 313.972,71.8286622 C329.328,71.8046 340.65,83.3033 340.65,100.5483 Z M297.788,92.4564 L329.963,92.4564 C327.523,84.473 321.919,80.1075 313.984,80.1075 C305.514,80.1075 299.802,84.7926 297.788,92.4564 Z" id="Shape" fill="#171717"></path>
            <path d="M358.952,126.4262 L349.32,126.4262 L349.32,73.841 L358.952,73.841 L358.952,83.5247 C360.432,79.6898 364.874,73.4129 377.149,73.4129 L382.795,73.4129 L382.795,83.0966 L376.939,83.0966 C363.501,83.0966 358.958,87.3597 358.958,96.7238 L358.952,126.4262 Z" id="Path" fill="#171717"></path>
            <path d="M404.601,102.8395 C394.549,101.6336 387.458,96.846 387.458,87.1623 C387.458,77.9006 396.137,71.8287 408.94,71.8287 C426.616,71.8287 432.316,80.9878 434.018,86.3 L423.757,86.3 C422.594,84.9132 418.674,80.1256 408.94,80.1256 C401.004,80.1256 396.953,82.9957 396.953,86.8306 C396.953,90.557 399.602,92.8965 405.841,93.6442 C409.971,94.1748 412.506,94.3859 417.062,94.9225 C429.439,96.5144 434.731,101.8386 434.731,111.5284 C434.731,120.3619 426.688,127.3865 411.871,127.3865 C393.464,127.3865 387.003,115.9964 385.84,111.2088 L396.107,111.2088 C396.635,112.9092 400.866,118.8726 411.871,118.8726 C420.76,118.8726 425.099,115.6768 425.099,111.5284 C425.099,107.3799 422.876,104.8957 415.791,104.0756 L404.601,102.8395 Z" id="Path" fill="#171717"></path>
            <path d="M214.385,48.0001831 L224.436,48.0001831 L224.436,63.2252 L214.385,63.2252 L214.385,48.0001831 Z M214.594,73.325 L224.22,73.325 L224.22,125.9162 L214.594,125.9162 L214.594,73.325 Z" id="Shape" fill="#171717"></path>
            <polygon id="Path" fill="#171717" points="149.29 57.5274 158.922 57.5274 158.922 126.2663 149.29 126.2663"></polygon>
            <path d="M473.614,80.7088 L496.989,68.2273 L493.063,60.7083 L471.648,69.3368 C471.098,69.5601 470.483,69.5601 469.933,69.3368 L448.518,60.7083 L444.58,68.2514 L467.956,80.733 L444.58,93.2145 L448.518,100.7577 L469.933,92.0628 C470.483,91.8395 471.098,91.8395 471.648,92.0628 L493.063,100.7155 L497.001,93.1723 L473.614,80.7088 Z" id="Path" fill="#23F7DD"></path>
            <path d="M0.367333333,48 L0.367333333,46.164 C2.86067913,46.164 5.01399093,45.5746726 6.82733333,44.396 C8.64067573,43.2173274 10.2046601,41.698676 11.5193333,39.84 L11.5193333,9.036 C10.2046601,7.13199048 8.64067573,5.60200578 6.82733333,4.446 C5.01399093,3.28999422 2.86067913,2.712 0.367333333,2.712 L0.367333333,0.808 L58.0313333,0.808 L58.0313333,22.5 L56.1273333,22.5 C56.1273333,20.4146562 55.8553361,18.5106753 55.3113333,16.788 C54.7673306,15.0653247 53.9966717,13.5013404 52.9993333,12.096 C52.001995,10.6906596 50.8120069,9.43267222 49.4293333,8.322 C48.0466598,7.21132778 46.5166751,6.2026712 44.8393333,5.296 L38.1753333,5.296 C37.3593293,5.84000272 36.6000035,6.37266406 35.8973333,6.894 C35.1946632,7.41533594 34.5260032,8.1293288 33.8913333,9.036 L33.8913333,23.248 L42.4593333,14.884 L42.4593333,33.924 L33.8913333,25.56 L33.8913333,39.84 C34.5260032,40.7013376 35.1946632,41.3926641 35.8973333,41.914 C36.6000035,42.4353359 37.3593293,42.9679973 38.1753333,43.512 L44.8393333,43.512 C46.5166751,42.6506624 48.0466598,41.653339 49.4293333,40.52 C50.8120069,39.386661 52.001995,38.1286736 52.9993333,36.746 C53.9966717,35.3633264 54.7673306,33.8106753 55.3113333,32.088 C55.8553361,30.3653247 56.1273333,28.4613438 56.1273333,26.376 L58.0313333,26.376 L58.0313333,48 L0.367333333,48 Z M144.898242,0.808 L144.898242,2.712 C142.359563,2.712 140.194918,3.28999422 138.404242,4.446 C136.613567,5.60200578 135.060916,7.13199048 133.746242,9.036 L133.746242,39.84 C135.060916,41.698676 136.613567,43.2173274 138.404242,44.396 C140.194918,45.5746726 142.359563,46.164 144.898242,46.164 L144.898242,48 L100.222242,48 L100.222242,46.164 C102.760922,46.164 104.925567,45.5746726 106.716242,44.396 C108.506918,43.2173274 110.059569,41.698676 111.374242,39.84 L111.374242,11.076 L96.5502424,45.144 L92.0622424,45.144 L79.7542424,16.856 L79.7542424,40.316 C81.0689157,42.0386753 82.5989004,43.4439946 84.3442424,44.532 C86.0895845,45.6200054 88.1635637,46.164 90.5662424,46.164 L90.5662424,48 L64.5222424,48 L64.5222424,46.164 C66.9249211,46.164 68.9989004,45.6200054 70.7442424,44.532 C72.4895845,43.4439946 74.0195692,42.0386753 75.3342424,40.316 L75.3342424,8.56 C74.0195692,6.83732472 72.4895845,5.43200544 70.7442424,4.344 C68.9989004,3.25599456 66.9249211,2.712 64.5222424,2.712 L64.5222424,0.808 L95.1222424,0.808 L103.282242,19.508 L111.374242,0.808 L144.898242,0.808 Z M204.565152,0.876 C206.605162,0.876 208.531809,1.17066372 210.345152,1.76 C212.158494,2.34933628 213.745145,3.16532812 215.105152,4.208 C216.465158,5.25067188 217.530481,6.46332642 218.301152,7.846 C219.071822,9.22867358 219.457152,10.7133254 219.457152,12.3 L219.457152,14.952 C219.457152,16.9466766 218.867824,18.7599918 217.689152,20.392 C216.510479,22.0240082 214.901162,23.3613281 212.861152,24.404 C214.901162,25.4466719 216.510479,26.7953251 217.689152,28.45 C218.867824,30.1046749 219.457152,31.9293234 219.457152,33.924 L219.457152,36.576 C219.457152,38.1626746 219.071822,39.6473264 218.301152,41.03 C217.530481,42.4126736 216.465158,43.6139949 215.105152,44.634 C213.745145,45.6540051 212.158494,46.4699969 210.345152,47.082 C208.531809,47.6940031 206.605162,48 204.565152,48 L151.389152,48 L151.389152,46.164 C153.882497,46.164 156.035809,45.5746726 157.849152,44.396 C159.662494,43.2173274 161.226478,41.698676 162.541152,39.84 L162.541152,9.036 C161.226478,7.13199048 159.662494,5.60200578 157.849152,4.446 C156.035809,3.28999422 153.882497,2.712 151.389152,2.712 L151.389152,0.808 L204.565152,0.876 Z M184.913152,4.752 L184.913152,22.5 L187.157152,22.432 C188.381158,22.432 189.525813,22.2053356 190.591152,21.752 C191.65649,21.2986644 192.597147,20.6640041 193.413152,19.848 C194.229156,19.0319959 194.863816,18.0913387 195.317152,17.026 C195.770487,15.9606613 195.997152,14.8160061 195.997152,13.592 C195.997152,12.3679939 195.770487,11.2233387 195.317152,10.158 C194.863816,9.09266134 194.229156,8.15200408 193.413152,7.336 C192.597147,6.51999592 191.65649,5.8853356 190.591152,5.432 C189.525813,4.9786644 188.381158,4.752 187.157152,4.752 L184.913152,4.752 Z M184.913152,26.376 L184.913152,44.124 L187.157152,44.056 C188.381158,44.056 189.525813,43.8293356 190.591152,43.376 C191.65649,42.9226644 192.597147,42.2880041 193.413152,41.472 C194.229156,40.6559959 194.863816,39.7153387 195.317152,38.65 C195.770487,37.5846613 195.997152,36.4400061 195.997152,35.216 C195.997152,34.082661 195.793154,32.9946719 195.385152,31.952 C194.977149,30.9093281 194.410488,29.9913373 193.685152,29.198 C192.959815,28.4046627 192.09849,27.7586692 191.101152,27.26 C190.103813,26.7613308 189.038491,26.4666671 187.905152,26.376 L184.913152,26.376 Z M270.556061,33.38 C270.556061,31.9746596 270.27273,30.8413376 269.706061,29.98 C269.139391,29.1186624 268.414065,28.4273359 267.530061,27.906 C266.646056,27.3846641 265.648733,27.022001 264.538061,26.818 C263.427388,26.613999 262.328066,26.4893336 261.240061,26.444 L259.472061,26.376 L259.472061,39.84 C260.786734,41.698676 262.339385,43.2173274 264.130061,44.396 C265.920736,45.5746726 268.085381,46.164 270.624061,46.164 L270.624061,48 L225.948061,48 L225.948061,46.164 C228.441406,46.164 230.594718,45.5746726 232.408061,44.396 C234.221403,43.2173274 235.785387,41.698676 237.100061,39.84 L237.100061,9.036 C235.785387,7.13199048 234.221403,5.60200578 232.408061,4.446 C230.594718,3.28999422 228.441406,2.712 225.948061,2.712 L225.948061,0.808 L279.192061,0.876 C281.232071,0.876 283.158718,1.17066372 284.972061,1.76 C286.785403,2.34933628 288.360721,3.16532812 289.698061,4.208 C291.035401,5.25067188 292.100723,6.46332642 292.894061,7.846 C293.687398,9.22867358 294.084061,10.7133254 294.084061,12.3 L294.084061,14.952 C294.084061,17.2640116 293.256736,19.3606573 291.602061,21.242 C289.947386,23.1233427 287.805407,24.5173288 285.176061,25.424 C285.946731,25.6506678 286.68339,25.9793312 287.386061,26.41 C288.088731,26.8406688 288.757391,27.3053308 289.392061,27.804 C290.616067,28.8466719 291.500058,29.9913271 292.044061,31.238 C292.588063,32.4846729 293.030059,33.7879932 293.370061,35.148 C293.710062,36.5080068 294.038726,37.8793264 294.356061,39.262 C294.673396,40.6446736 295.240057,41.9706603 296.056061,43.24 C296.55473,44.0560041 297.268723,44.7473305 298.198061,45.314 C299.127399,45.8806695 300.340053,46.164 301.836061,46.164 L301.836061,48 L282.456061,48 C280.869386,48 279.350735,47.6940031 277.900061,47.082 C276.449387,46.4699969 275.180066,45.6540051 274.092061,44.634 C273.004055,43.6139949 272.14273,42.4580065 271.508061,41.166 C270.873391,39.8739935 270.556061,38.5706732 270.556061,37.256 L270.556061,33.38 Z M261.716061,22.432 C262.940067,22.432 264.084722,22.2053356 265.150061,21.752 C266.215399,21.2986644 267.156057,20.6640041 267.972061,19.848 C268.788065,19.0319959 269.422725,18.0913387 269.876061,17.026 C270.329396,15.9606613 270.556061,14.8160061 270.556061,13.592 C270.556061,12.3679939 270.329396,11.2233387 269.876061,10.158 C269.422725,9.09266134 268.788065,8.15200408 267.972061,7.336 C267.156057,6.51999592 266.215399,5.8853356 265.150061,5.432 C264.084722,4.9786644 262.940067,4.752 261.716061,4.752 L259.472061,4.752 L259.472061,22.5 L261.716061,22.432 Z M328.016061,26.376 L337.944061,26.376 L332.844061,13.932 L328.016061,26.376 Z M339.576061,30.252 L326.588061,30.252 L322.712061,40.316 C324.072067,43.9426848 326.678708,45.8693322 330.532061,46.096 L330.532061,48 L305.236061,48 L305.236061,46.164 C307.729406,46.164 310.041383,45.597339 312.172061,44.464 C314.302738,43.330661 316.320051,41.9480082 318.224061,40.316 L333.388061,0.808 L349.776061,0.808 L364.804061,37.324 C365.846732,39.7720122 367.10472,41.6873264 368.578061,43.07 C370.051401,44.4526736 371.717385,45.4613302 373.576061,46.096 L373.576061,48 L335.768061,48 L335.768061,46.096 C338.034739,45.9599993 339.757388,45.3140058 340.936061,44.158 C342.114733,43.0019942 342.976058,41.5626753 343.520061,39.84 L339.576061,30.252 Z M421.652061,0.808 L421.652061,2.712 C419.113381,2.712 416.948736,3.28999422 415.158061,4.446 C413.367385,5.60200578 411.814734,7.13199048 410.500061,9.036 L410.500061,44.124 L421.448061,44.124 C423.125402,43.2173288 424.655387,42.1746726 426.038061,40.996 C427.420734,39.8173274 428.610722,38.4913407 429.608061,37.018 C430.605399,35.5446593 431.376058,33.9126756 431.920061,32.122 C432.464063,30.3313244 432.736061,28.3933438 432.736061,26.308 L434.640061,26.308 L434.640061,48 L376.976061,48 L376.976061,46.164 C379.469406,46.164 381.622718,45.5746726 383.436061,44.396 C385.249403,43.2173274 386.813387,41.698676 388.128061,39.84 L388.128061,9.036 C386.813387,7.13199048 385.249403,5.60200578 383.436061,4.446 C381.622718,3.28999422 379.469406,2.712 376.976061,2.712 L376.976061,0.808 L421.652061,0.808 Z M475.858364,2.984 C474.181022,3.34666848 472.923034,4.06066134 472.084364,5.126 C471.245693,6.19133866 470.645032,7.49465896 470.282364,9.036 L475.858364,19.984 L481.366364,9.036 C481.049029,7.49465896 480.459701,6.19133866 479.598364,5.126 C478.737026,4.06066134 477.490372,3.34666848 475.858364,2.984 Z M478.102364,24.404 L478.102364,39.84 C479.417037,41.698676 480.969688,43.2173274 482.760364,44.396 C484.551039,45.5746726 486.715684,46.164 489.254364,46.164 L489.254364,48 L444.578364,48 L444.578364,46.164 C447.071709,46.164 449.225021,45.5746726 451.038364,44.396 C452.851706,43.2173274 454.41569,41.698676 455.730364,39.84 L455.730364,24.404 L447.978364,9.036 C445.666352,7.13199048 443.320376,5.60200578 440.940364,4.446 C438.560352,3.28999422 436.123709,2.712 433.630364,2.712 L433.630364,0.808 L500.202364,0.808 L500.202364,2.712 C497.663684,2.712 495.215709,3.28999422 492.858364,4.446 C490.501019,5.60200578 488.166375,7.13199048 485.854364,9.036 L478.102364,24.404 Z" id="embraly" fill="#171717"></path>
        </g>
    </g>
</svg>